<svg width="370.17" height="155.08"
    viewBox="0 0 370.17 155.08" xmlns="http://www.w3.org/2000/svg" class="css-1j8o68f">
    <defs></defs>
    <g transform="matrix(1.03663,0,0,1.03663,-1.45,25.18)" fill="#292929">
        <path d="M2650 10788 c-209 -19 -422 -94 -532 -186 -197 -165 -306 -431 -337
        -817 -12 -148 -27 -694 -41 -1445 -18 -989 -8 -2912 20 -3880 6 -190 12 -419
        15 -510 28 -964 64 -1747 86 -1865 47 -263 153 -399 369 -475 103 -37 174 -47
        395 -59 1231 -68 2702 -15 3985 145 312 39 414 64 549 135 l73 39 77 -68 c116
        -103 167 -144 275 -216 150 -102 265 -146 274 -104 2 12 -44 48 -165 128 -305
        204 -488 376 -700 658 -55 74 -89 110 -95 104 -13 -13 23 -82 111 -212 39 -58
        77 -114 86 -126 15 -21 14 -21 -62 -38 -264 -56 -1410 -158 -2197 -196 -767
        -37 -2196 -25 -2571 21 -116 14 -140 27 -149 76 -31 186 -103 2270 -126 3668
        -23 1359 -3 3425 40 4250 19 345 79 518 205 587 105 57 245 72 810 88 204 6
        431 13 506 17 l137 6 17 -59 c44 -152 119 -231 236 -249 42 -6 538 12 945 35
        132 7 169 12 208 30 83 40 150 138 172 255 l7 38 471 -6 c475 -6 661 -15 927
        -42 184 -19 243 -35 257 -73 46 -116 57 -260 87 -1122 28 -803 43 -1432 75
        -3035 12 -555 22 -1009 23 -1010 1 0 43 -20 94 -44 83 -40 99 -53 172 -135
        106 -120 163 -192 260 -328 104 -144 116 -158 135 -158 70 0 -111 286 -326
        516 l-75 80 -7 425 c-3 233 -11 600 -16 814 -5 215 -14 629 -20 920 -22 1095
        -58 2274 -81 2620 -27 419 -125 642 -329 749 -135 71 46 66 -2170 65 -1103 -1
        -2048 -6 -2100 -11z" />
    </g>
</svg>
